<svg xmlns="http://www.w3.org/2000/svg" fill-rule="evenodd" viewBox="0 0 210 297"><path fill="#fe4" d="M45 55c9 35 40 60 47 83 9 24 4 37 1 55 1-1 9-14 27-23 25-13 57-8 77-25-2 3-19 40-27 42 0 8-6 9-9 10 1 7-5 8-8 8 0 2-1 9-9 8-1 4-5 6-7 6-9 2-26-6-33-11 4 3 12 9 15 18 1 4 3 15-2 15-2 2-7 2-9-1-4 3-8 1-11-1-2 0-4 0-6-2-5-5-4-21-2-34-17 12-39 23-60 20-5-1-7-3-6-10-5-2-6-8-3-12-3-1-9-8-7-13 1-2 3-4 6-4 16-6 39 5 48 7 0 0-11-4-25-13-9-5-24-16-21-29-2-2-5-11 1-16-1-2-5-10 2-16-3-8 1-12 4-14-2-14 16-33 17-48zm55 149l14 4h7c2-1 1-2 0-4 3 2 10 0 6-4 3 1 5 1 5 4-2 2-5 2-7 1v4h-10c-6-1-10-2-15-5zm-23-11l-18-11c-3-3-5-6-4-8 0-2 2-2 4-2-2-1-4-4-4-7 1-2 2-2 5-2-3-2-6-3-8-1-1 3 1 5 3 7l-4 2c-1 4 2 8 7 12s12 7 19 10zm32 22l5 12c0 2 1 4-1 7-2 2-4 1-6 0-1 2-5 2-6 0 1 3 2 4 5 4l3-3c1 3 3 3 5 2 3-3 2-7 2-9-2-7-4-9-7-13zm-55-26c-5-1-15-2-22-1-2 1-7 3-8 6s2 5 4 6c-4 3-2 9 1 9-7-1-7-4-7-6l3-4c-4-2-7-5-5-8 1-3 6-4 8-4s16-2 26 2z"/></svg>
