<svg xmlns="http://www.w3.org/2000/svg" version="1" viewBox="0 0 285 49"><g fill-rule="evenodd"><g fill="#250"><path d="M16 49h7A69 69 0 0 0 0 6l4 4c9 13 13 26 12 39zM43 49h7c-2-14-8-27-19-39-2-2-5-2-7-3l6 3c9 13 13 26 13 39z"/><path d="M28 49h7c-2-10 0-22 4-33 2-5 5-11 9-16L36 16c-5 11-8 22-8 33zM111 49h-7a69 69 0 0 1 24-43l-4 4c-9 13-13 26-13 39z"/><path d="M112 49h-7c2-14 8-27 19-39 2-2 5-2 7-3l-6 3c-9 13-14 26-13 39zM71 49h-7c2-10 1-22-3-33-2-5-5-11-9-16l11 16c6 11 9 22 8 33z"/><path d="M108 49h7A69 69 0 0 0 91 6l4 4c9 13 13 26 13 39zM87 49h7c-2-14-8-27-20-39-1-2-4-2-6-3l6 3c9 13 13 26 13 39zM135 49h7c-1-10 0-22 4-33 2-5 5-11 9-16-5 5-8 11-11 16-6 11-9 22-9 33z"/><path d="M74 49h-7A69 69 0 0 1 90 6l-3 4C77 23 73 36 74 49z"/><path d="M64 49h-8c2-14 8-27 20-39 1-2 4-2 6-3l-6 3c-9 13-13 26-12 39zM100 49h-7c2-10 1-22-3-33-3-5-5-11-9-16l11 16c6 11 9 22 8 33zM194 49h7a69 69 0 0 0-24-43l4 4c9 13 13 26 13 39zM171 49h7c-2-14-8-27-19-39-2-2-5-2-7-3l6 3c9 13 13 26 13 39zM243 49h7c-1-10 0-22 4-33 2-5 5-11 9-16l-11 16c-6 11-9 22-9 33zM215 49h-7a69 69 0 0 1 24-43l-4 4c-9 13-14 26-13 39zM226 49h-7c1-14 8-27 19-39l6-3-5 3c-9 13-14 26-13 39z"/><path d="M215 49h-7c2-10 1-22-3-33l-9-16 11 16c6 11 9 22 8 33zM272 49h7a69 69 0 0 0-23-43l3 4c10 13 14 26 13 39zM233 49h7c-1-14-8-27-19-39l-6-3 5 3c9 13 14 26 13 39z"/><path d="M205 49h7c-1-10 0-22 4-33 2-5 5-11 9-16-5 5-8 11-11 16-6 11-9 22-9 33zM170 49h-7a69 69 0 0 1 23-43l-3 4c-9 13-14 26-13 39zM232 49h-7c2-14 8-27 19-39 2-2 5-2 7-3l-6 3c-9 13-13 26-13 39z"/><path d="M268 49h-7c1-10 0-22-4-33-2-5-5-11-9-16 5 5 8 11 11 16 6 11 9 22 9 33z"/></g><g fill="#4a0"><path d="M7 49H2c1-7 4-14 10-20l14-11c-5 4-9 8-11 12-5 6-9 13-8 19z"/><path d="M28 49h7c-1-8-5-17-10-25l-8-11 6 12c4 8 5 16 5 24zM43 49h5l-4-10c-3-4-5-9-9-13-3-4-6-8-6-13 0-2 1-5 4-8-3 3-5 5-5 8-1 5 1 10 4 14l8 13 3 9zM66 49h-5c0-7 4-14 10-20l14-11-12 12c-4 6-8 13-7 19zM127 49h-7c1-8 4-17 10-25l8-11-6 12c-4 8-5 16-5 24zM96 49h-5l4-10c3-4 5-9 9-13 3-4 6-8 6-13l-4-8 5 8c1 5-2 10-4 14l-8 13-3 9z"/><path d="M118 49h4c0-7-4-14-10-20-3-4-8-7-14-11l12 12c4 6 9 13 8 19zM101 49h7c-1-8-4-17-9-25l-9-11 6 12c4 8 6 16 5 24zM62 49h5l-3-10-9-13c-3-4-6-8-6-13l3-8c-2 3-4 5-4 8-1 5 1 10 4 14l8 13 2 9z"/><path d="M81 49h-5c0-7 4-14 10-20l14-11-12 12c-4 6-8 13-7 19zM57 49h-7c1-8 4-17 10-25l8-11-6 12c-4 8-5 16-5 24zM128 49h-5c0-3 1-6 4-10l8-13c4-4 6-8 6-13l-3-8 5 8c0 5-2 10-4 14-3 4-7 8-9 13l-2 9zM206 49h4c0-7-3-14-9-20l-14-11 11 12c5 6 9 13 8 19zM239 49h7c-2-8-5-17-10-25l-9-11 7 12c4 8 5 16 5 24z"/><path d="M244 49h5l-4-10c-3-4-5-9-9-13-3-4-6-8-6-13l4-8-5 8c-1 5 1 10 4 14l8 13 3 9zM148 49h-4c0-7 3-14 9-20l14-11-11 12c-5 6-9 13-8 19zM194 49h-7c1-8 4-17 10-25l8-11-6 12c-4 8-6 16-5 24z"/><path d="M232 49h-5l3-10 9-13c4-4 6-8 6-13l-3-8c2 3 4 5 4 8 1 5-1 10-4 14l-8 13-2 9zM184 49h5c-1-7-4-14-10-20l-14-11 12 12c4 6 8 13 7 19zM205 49h7c-1-8-4-17-9-25l-9-11 7 12c3 8 5 16 4 24z"/><path d="M189 49h5c0-3-1-6-4-10l-8-13c-4-4-7-8-6-13l3-8-5 8c0 5 2 10 4 14 3 4 7 8 9 13l2 9z"/><path d="M172 49h-5c1-7 4-14 10-20l14-11-11 12c-5 6-9 13-8 19zM189 49h-7c1-8 5-17 10-25l8-11-6 12c-4 8-5 16-5 24z"/><path d="M165 49h-5c0-3 1-6 4-10l8-13c4-4 6-8 6-13l-3-8 5 8c0 5-2 10-4 14-3 4-7 8-9 13l-2 9zM274 49h-7c1-8 4-17 9-25l9-11-7 12c-3 8-5 16-4 24z"/></g><g fill="#47dc19"><path d="M19 49h5c-2-9 0-22 9-31 4-3 13-4 20-6-7 2-17 2-22 6-10 7-13 21-12 31z"/><path d="M38 49h4l-3-33-1 33zM28 49h5c-3-9-7-17-17-24-4-3-9-6-15-8l14 9c8 7 13 15 13 23zM112 49h-5c2-9 0-22-9-31-4-3-13-4-20-6 7 2 17 2 22 6 10 7 12 21 12 31zM124 49h-4l3-33 1 33z"/><path d="M96 49h-5c2-9 7-17 16-24l15-8-13 9c-8 7-13 15-13 23zM75 49h5c-2-9 0-22 9-31 4-3 14-4 20-6-7 2-17 2-22 6-10 7-12 21-12 31zM69 49h4l-3-33-1 33z"/><path d="M116 49h4c-2-9-6-17-16-24-4-3-9-6-15-8l14 9c8 7 12 15 13 23z"/><path d="M111 49h-6c2-9 0-22-9-31-4-3-13-4-20-6 7 2 17 2 22 6 10 7 13 21 13 31zM77 49h-4l3-33 1 33z"/><path d="M79 49h-5c2-9 7-17 16-24l15-8-13 9c-8 7-13 15-13 23zM155 49h6c-2-9 0-22 9-31 4-3 13-4 19-6-6 2-16 2-21 6-10 7-13 21-13 31z"/><path d="M156 49h4l-3-33-1 33zM255 49h4c-2-9-6-17-16-24-4-3-9-6-15-8l13 9c9 7 13 15 14 23zM230 49h-6c2-9 0-22-9-31-4-3-13-4-19-6 6 2 16 2 21 6 10 7 13 21 13 31zM153 49h-4l3-33 1 33z"/><path d="M216 49h-5c3-9 7-17 17-24 4-3 9-6 15-8l-14 9c-8 7-13 15-13 23zM239 49h5c-2-9 0-22 9-31 4-3 13-4 20-6-7 2-17 2-22 6-10 7-13 21-12 31zM151 49h4l-3-33-1 33z"/><path d="M281 49h4c-2-9-6-17-16-24-4-3-9-6-15-8l14 9c8 7 12 15 13 23zM177 49h-5c1-9 0-22-9-31-5-3-14-4-20-6 7 2 17 2 22 6 10 7 12 21 12 31zM189 49h-4l3-33v33zM199 49h-4c2-9 6-17 16-24 4-3 9-6 15-8l-13 9c-9 7-13 15-14 23z"/></g><g fill="#84ff5e"><path d="M8 49h4v-5l6-8-7 5c-2 3-3 5-3 8z"/><path d="M19 49h4c0-5-3-8-7-11l-1-4 2-4c-1 1-3 2-3 4v6l3 3c2 1 3 4 2 6zM37 49h3l1-7 4-9-6 7-2 9zM26 49h3l-3-21v21zM31 49h4l-2-10-5-8a30 30 0 0 1 3 18zM126 49h-4v-5c0-2-3-6-5-8l7 5 2 8zM74 49h-4c0-5 3-8 7-11l1-4-2-4 4 4-1 6-2 3c-3 1-4 4-3 6zM113 49h-4l-1-7-3-9 5 7 3 9zM115 49h-2l2-21c2 4 1 11 1 15l-1 6z"/><path d="M77 49h-4l2-10 5-8a30 30 0 0 0-3 18zM79 49h4l1-5c0-2 3-6 5-8l-7 5-3 8zM121 49h4c0-5-3-8-7-11l-1-4 2-4-4 4 1 6 2 3c3 1 4 4 3 6zM135 49h4l1-7 3-9-5 7c-2 2-2 7-3 9zM106 49h3l-3-21-1 15 1 6zM62 49h3c0-4 1-5-1-10l-6-8a30 30 0 0 1 4 18z"/><path d="M130 49h-4v-5c0-2-3-6-5-8l6 5c2 3 3 5 3 8zM53 49h-3c-1-5 2-8 6-11 1-1 2-2 1-4l-1-4 3 4c1 2 0 4-1 6 0 2-1 2-2 3-2 1-3 4-3 6z"/><path d="M57 49h-4l-1-7-4-9 6 7 3 9zM104 49h-3l3-21v21zM130 49h-4c1-4-1-5 1-10l6-8a30 30 0 0 0-3 18zM153 49h4v-5c0-2 3-6 5-8l-7 5-2 8zM197 49h3c0-5-3-8-6-11l-2-4 2-4c-1 1-3 2-3 4v6l3 3c2 1 3 4 3 6zM139 49h4v-7l4-9c-3 2-3 4-5 7-2 2-2 7-3 9zM254 49h3l-3-21v21zM243 49h4l-2-10-5-8a30 30 0 0 1 3 18zM217 49h-4v-5l-6-8 7 5c2 3 3 5 3 8z"/><path d="M187 49h-4c0-5 3-8 7-11l1-4c0-1 0-3-2-4l4 4-1 6c0 2-1 2-2 3-3 1-3 4-3 6zM273 49h-3l-1-7-4-9c3 2 3 4 5 7 2 2 2 7 3 9zM225 49h-3l3-21v21zM162 49h-3c0-4-1-5 1-10l6-8a30 30 0 0 0-4 18zM255 49h4v-5c0-2 3-6 5-8l-6 5c-2 3-3 5-3 8zM247 49h3c0-5-2-8-6-11l-2-4 2-4-3 4v6l3 3c2 1 3 4 3 6z"/><path d="M253 49h4l1-7 3-9-5 7-3 9zM270 49h3l-2-21c-2 4-1 11-1 15v6z"/><path d="M274 49h4l-2-10-6-8a30 30 0 0 1 4 18zM245 49h-4v-5c0-2-3-6-5-8l7 5 2 8z"/><path d="M266 49h-4c0-5 3-8 7-11l1-4-2-4c1 1 3 2 3 4v6l-3 3c-2 1-3 4-2 6zM179 49h-4l-1-7-4-9 6 7 3 9zM237 49h-3l3-21v21zM203 49h-4l1-10 6-8a30 30 0 0 0-3 18z"/></g></g></svg>
